<svg width="22" height="21" viewBox="0 0 22 21" fill="none" xmlns="http://www.w3.org/2000/svg">
                            <path d="M20.125 2.23438H18.3281V1.15625C18.3281 0.760938 18.0047 0.4375 17.6094 0.4375H16.8906C16.4953 0.4375 16.1719 0.760938 16.1719 1.15625V2.23438H6.46875V1.15625C6.46875 0.760938 6.14531 0.4375 5.75 0.4375H5.03125C4.63594 0.4375 4.3125 0.760938 4.3125 1.15625V2.23438H2.51562C1.61719 2.23438 0.898438 2.95313 0.898438 3.85156V19.125C0.898438 20.0234 1.61719 20.7422 2.51562 20.7422H20.125C21.0234 20.7422 21.7422 20.0234 21.7422 19.125V3.85156C21.7422 2.95313 21.0234 2.23438 20.125 2.23438ZM17.6094 1.15625V4.03125H16.8906V1.15625H17.6094ZM5.75 1.15625V4.03125H5.03125V1.15625H5.75ZM21.0234 19.125C21.0234 19.6281 20.6281 20.0234 20.125 20.0234H2.51562C2.0125 20.0234 1.61719 19.6281 1.61719 19.125V6.72656H21.0234V19.125ZM21.0234 6.00781H1.61719V3.85156C1.61719 3.34844 2.0125 2.95313 2.51562 2.95313H4.3125V4.03125C4.3125 4.42656 4.63594 4.75 5.03125 4.75H5.75C6.14531 4.75 6.46875 4.42656 6.46875 4.03125V2.95313H16.1719V4.03125C16.1719 4.42656 16.4953 4.75 16.8906 4.75H17.6094C18.0047 4.75 18.3281 4.42656 18.3281 4.03125V2.95313H20.125C20.6281 2.95313 21.0234 3.34844 21.0234 3.85156V6.00781Z" fill="#FF6168"></path>
                            <path d="M13.1172 8.34375H9.52344C9.32578 8.34375 9.16406 8.50547 9.16406 8.70313V12.2969C9.16406 12.4945 9.32578 12.6563 9.52344 12.6563H13.1172C13.3148 12.6563 13.4766 12.4945 13.4766 12.2969V8.70313C13.4766 8.50547 13.3148 8.34375 13.1172 8.34375ZM12.7578 11.9375H9.88281V9.0625H12.7578V11.9375Z" fill="#FF6168"></path>
                            <path d="M7.1875 8.34375H3.59375C3.39609 8.34375 3.23438 8.50547 3.23438 8.70313V12.2969C3.23438 12.4945 3.39609 12.6563 3.59375 12.6563H7.1875C7.38516 12.6563 7.54687 12.4945 7.54687 12.2969V8.70313C7.54687 8.50547 7.38516 8.34375 7.1875 8.34375ZM6.82812 11.9375H3.95312V9.0625H6.82812V11.9375Z" fill="#FF6168"></path>
                            <path d="M19.0469 8.34375H15.4531C15.2555 8.34375 15.0938 8.50547 15.0938 8.70313V12.2969C15.0938 12.4945 15.2555 12.6563 15.4531 12.6563H19.0469C19.2445 12.6563 19.4062 12.4945 19.4062 12.2969V8.70313C19.4062 8.50547 19.2445 8.34375 19.0469 8.34375ZM18.6875 11.9375H15.8125V9.0625H18.6875V11.9375Z" fill="#FF6168"></path>
                            <path d="M14.1234 14.2555C13.9797 14.1118 13.7641 14.1118 13.6203 14.2555L13.5125 14.3633V14.3274C13.5125 14.1297 13.3508 13.968 13.1531 13.968H9.55939C9.36173 13.968 9.20001 14.1297 9.20001 14.3274V17.9211C9.20001 18.1188 9.36173 18.2805 9.55939 18.2805H13.1531C13.3508 18.2805 13.5125 18.1188 13.5125 17.9211V15.3696L14.1234 14.7586C14.2672 14.6149 14.2672 14.3993 14.1234 14.2555V14.2555ZM12.7938 17.5618H9.91876V16.1422L11.0688 17.3102C11.1406 17.3821 11.2305 17.418 11.3203 17.418C11.4102 17.418 11.5 17.3821 11.5719 17.3102L12.7758 16.1063V17.5618H12.7938ZM12.7938 15.0821L11.3203 16.5375L10.3141 15.5313C10.2063 15.4235 10.0445 15.4055 9.91876 15.4594V14.7047H12.7938V15.0821Z" fill="#FF6168"></path>
                            <path d="M7.1875 14.0938H3.59375C3.39609 14.0938 3.23438 14.2555 3.23438 14.4531V18.0469C3.23438 18.2445 3.39609 18.4062 3.59375 18.4062H7.1875C7.38516 18.4062 7.54687 18.2445 7.54687 18.0469V14.4531C7.54687 14.2555 7.38516 14.0938 7.1875 14.0938ZM6.82812 17.6875H3.95312V14.8125H6.82812V17.6875Z" fill="#FF6168"></path>
                            <path d="M20.0531 14.3812C19.9094 14.2375 19.6937 14.2375 19.55 14.3812L19.4062 14.525V14.4531C19.4062 14.2555 19.2445 14.0938 19.0469 14.0938H15.4531C15.2555 14.0938 15.0938 14.2555 15.0938 14.4531V18.0469C15.0938 18.2445 15.2555 18.4062 15.4531 18.4062H19.0469C19.2445 18.4062 19.4062 18.2445 19.4062 18.0469V15.5312L20.0531 14.8844C20.1969 14.7406 20.1969 14.525 20.0531 14.3812ZM18.6875 17.6875H15.8125V16.232L17.0164 17.4359C17.0883 17.5078 17.1781 17.5437 17.268 17.5437C17.3578 17.5437 17.4477 17.5078 17.5195 17.4359L18.6875 16.25V17.6875ZM18.6875 15.2437L17.268 16.6633L16.2437 15.657C16.118 15.5312 15.9562 15.5133 15.8125 15.6031V14.8125H18.6875V15.2437Z" fill="#FF6168"></path>
                          </svg>