<svg width="85" height="83" viewBox="0 0 85 83" fill="none" xmlns="http://www.w3.org/2000/svg">
<g clip-path="url(#clip0_0_1749)">
<path d="M64.4726 2.93394C79.3078 9.85794 90.1614 52.3115 81.1954 65.9541C71.5805 80.6529 24.2436 88.6918 11.5024 76.5455C0.825825 66.3942 -5.22032 32.9477 8.46462 17.8088C22.1496 2.69923 51.348 -3.19791 64.4726 2.93394Z" stroke="#737373" stroke-width="1.5" stroke-miterlimit="10"/>
<path d="M52.1644 7.01361C51.6196 6.92281 51.1044 7.29083 51.0136 7.8356C50.9228 8.38037 51.2908 8.8956 51.8356 8.98639L52.1644 7.01361ZM66.1221 18.4789C66.3866 18.9637 66.994 19.1424 67.4789 18.8779C67.9637 18.6134 68.1424 18.006 67.8779 17.5211L66.1221 18.4789ZM51.8356 8.98639C55.809 9.64862 58.7263 10.8516 60.9642 12.4501C63.2001 14.0471 64.8126 16.0781 66.1221 18.4789L67.8779 17.5211C66.4602 14.9219 64.6636 12.6347 62.1267 10.8226C59.5919 9.01206 56.3729 7.71501 52.1644 7.01361L51.8356 8.98639Z" fill="white" fill-opacity="0.5"/>
</g>
<defs>
<clipPath id="clip0_0_1749">
<rect width="85" height="83" fill="white"/>
</clipPath>
</defs>
</svg>
