<svg width="71" height="85" viewBox="0 0 71 85" fill="none" xmlns="http://www.w3.org/2000/svg">
<g clip-path="url(#clip0_0_576)">
<path d="M48.2479 12.8662C48.5039 15.253 48.76 17.6398 49.0161 20.0267C49.2722 22.4135 49.5283 24.8003 49.7844 27.1872C50.0404 29.574 50.2835 31.9915 50.5396 34.3783C50.7957 36.7652 51.0518 39.152 51.3079 41.5388C51.5639 43.9257 51.82 46.3125 52.0761 48.6993C52.095 48.9966 52.1445 49.3069 52.1634 49.6043C52.2 49.9452 52.3109 50.2815 52.5091 50.5824C52.6637 50.9009 52.8749 51.1711 53.1864 51.3752C53.4849 51.61 53.8094 51.7834 54.1551 51.8212C54.4925 51.9639 54.8512 51.971 55.2051 51.9037C55.8694 51.7869 56.5808 51.473 56.9631 50.9114C57.402 50.3014 57.6132 49.6313 57.5223 48.9057C57.2662 46.5188 57.0101 44.132 56.754 41.7452C56.472 39.4197 56.2289 37.0022 55.9728 34.6154C55.7167 32.2285 55.4736 29.811 55.2176 27.4242C54.9615 25.0374 54.7054 22.6505 54.4623 20.233C54.2062 17.8462 53.9501 15.4594 53.6941 13.0725C53.6752 12.7752 53.6256 12.4649 53.6067 12.1676C53.5702 11.8266 53.4592 11.4904 53.261 11.1895C53.1064 10.8709 52.8952 10.6008 52.5838 10.3967C52.2853 10.1619 51.9608 9.98845 51.6151 9.9507C51.2777 9.80794 50.919 9.80087 50.565 9.86813C49.9008 9.98495 49.1893 10.2988 48.8071 10.8604C48.3812 11.4397 48.17 12.1099 48.2479 12.8662Z" fill="#535353"/>
<path d="M23.5066 34.5876C24.1013 36.4305 24.7089 38.2428 25.3166 40.055C25.955 41.8802 26.5933 43.7054 27.3189 45.4952C28.0446 47.2851 28.8269 49.0265 29.6964 50.7325C30.6368 52.6132 31.7082 54.4408 32.8928 56.1716C33.9629 57.7455 35.1334 59.2533 36.4431 60.603C36.764 60.9558 37.0672 61.2649 37.4011 61.587C37.6996 61.8218 38.0241 61.9952 38.3698 62.033C38.7072 62.1757 39.0659 62.1828 39.4199 62.1155C39.7608 62.0789 40.0971 61.968 40.3979 61.7698C40.7165 61.6152 40.9867 61.404 41.1908 61.0926C41.3123 60.8908 41.4338 60.689 41.5683 60.4566C41.763 59.9965 41.809 59.5458 41.763 59.0561C41.7051 58.8508 41.6603 58.6149 41.5718 58.3966C41.3948 57.96 41.1176 57.5896 40.74 57.2852C40.7223 57.2415 40.6609 57.2156 40.6432 57.1719C40.7884 57.3418 40.9772 57.494 41.1223 57.6639C39.3336 55.8222 37.8021 53.8 36.4405 51.6326C36.0441 51.0309 35.6913 50.4115 35.3385 49.7921C35.4399 49.9797 35.5721 50.1802 35.6606 50.3985C34.417 48.2087 33.3916 45.9305 32.4229 43.6038C31.4589 41.3515 30.6212 38.9718 29.8271 36.5743C29.3834 35.2293 28.9398 33.8843 28.4961 32.5393C28.3852 32.203 28.174 31.9328 27.9192 31.6804C27.6773 31.3972 27.3965 31.2061 27.0591 31.0633C26.7216 30.9206 26.3582 30.8392 26.0172 30.8757C25.6715 30.838 25.3176 30.9053 24.999 31.0598C24.3749 31.3383 23.7649 31.8397 23.5231 32.4969C23.4629 32.7246 23.4027 32.9523 23.3296 33.2107C23.2706 33.6921 23.3426 34.1204 23.5066 34.5876Z" fill="#535353"/>
<path d="M6.51378 64.3248C6.58339 64.2457 6.6707 64.2103 6.77099 64.1443C6.58339 64.2457 6.38282 64.3779 6.16455 64.4664C6.26484 64.4003 6.38282 64.3779 6.50081 64.3555C6.29552 64.4133 6.05955 64.4581 5.84128 64.5466C5.95926 64.5242 6.07724 64.5018 6.22591 64.4923C6.00291 64.5065 5.76223 64.477 5.53923 64.4912C5.71857 64.4947 5.92858 64.5112 6.11264 64.5891C5.88493 64.5289 5.65722 64.4687 5.39883 64.3956C5.74925 64.5077 6.08668 64.6504 6.38047 64.8109C6.17871 64.6894 5.97696 64.5678 5.74452 64.4333C6.44183 64.8368 7.01289 65.3678 7.64058 65.8503C8.378 66.4154 9.14609 66.9935 9.88351 67.5587C11.402 68.6712 12.9335 69.7531 14.4779 70.8043C17.8122 73.0106 21.2551 75.0457 24.8065 76.9098C26.7049 77.8938 28.6162 78.8471 30.5666 79.7083C30.904 79.8511 31.2674 79.9325 31.6084 79.8959C31.9541 79.9336 32.308 79.8664 32.6266 79.7118C32.9628 79.6009 33.233 79.3897 33.4855 79.1348C33.7686 78.893 33.9598 78.6122 34.1025 78.2747C34.3444 77.6175 34.4152 76.8518 34.106 76.2147C33.8099 75.5469 33.3308 75.0549 32.6689 74.7387C29.8113 73.4575 27.0056 72.0535 24.2825 70.5398C23.5238 70.1104 22.7345 69.668 21.9888 69.2078C22.1906 69.3294 22.3923 69.4509 22.6248 69.5854C20.2214 68.1708 17.8699 66.6335 15.5751 65.0478C14.4341 64.2397 13.3239 63.4445 12.2089 62.5749C11.6602 62.162 11.0939 61.7054 10.5453 61.2925C10.1064 60.9621 9.68042 60.6011 9.22853 60.3014C8.79434 60.0454 8.37313 59.7587 7.91298 59.5641C7.48351 59.3824 6.99741 59.2491 6.52901 59.1594C5.41287 58.9765 4.16341 59.2798 3.31394 60.0054C3.01308 60.2036 2.79127 60.4715 2.61784 60.7959C2.41373 61.1074 2.27098 61.4449 2.23323 61.7906C2.1825 62.1669 2.18842 62.4949 2.29933 62.8312C2.36659 63.1851 2.49048 63.4907 2.73235 63.7739C3.18543 64.3272 3.8261 64.7791 4.53047 64.8239C5.22186 64.8994 5.96044 64.7779 6.51378 64.3248Z" fill="#535353"/>
</g>
<defs>
<clipPath id="clip0_0_576">
<rect width="72.5461" height="46.3322" fill="white" transform="translate(70.9362 18.052) rotate(112.931)"/>
</clipPath>
</defs>
</svg>
