<svg width="231" height="231" viewBox="0 0 231 231" fill="none" xmlns="http://www.w3.org/2000/svg">
<path d="M5.69684 92.8151C6.51006 94.0064 6.21418 95.5751 5.0229 96.3884C3.83161 97.2016 2.26287 96.9057 1.44965 95.7144C0.636433 94.5231 0.932309 92.9544 2.12359 92.1412C3.31488 91.3279 4.88362 91.6238 5.69684 92.8151Z" fill="#494949"/>
<path d="M16.7809 85.2487C17.5942 86.44 17.2983 88.0087 16.107 88.8219C14.9157 89.6352 13.347 89.3393 12.5338 88.148C11.7205 86.9567 12.0164 85.388 13.2077 84.5748C14.399 83.7615 15.9677 84.0574 16.7809 85.2487Z" fill="#494949"/>
<path d="M27.8133 77.7175C28.6265 78.9087 28.3306 80.4775 27.1393 81.2907C25.9481 82.1039 24.3793 81.808 23.5661 80.6168C22.7529 79.4255 23.0488 77.8567 24.24 77.0435C25.4313 76.2303 27.0001 76.5262 27.8133 77.7175Z" fill="#494949"/>
<path d="M38.8974 70.151C39.7106 71.3423 39.4147 72.9111 38.2235 73.7243C37.0322 74.5375 35.4634 74.2416 34.6502 73.0503C33.837 71.8591 34.1847 70.255 35.3242 69.4771C36.4636 68.6992 38.0842 68.9598 38.8974 70.151Z" fill="#494949"/>
<path d="M49.9815 62.5846C50.7947 63.7759 50.4988 65.3447 49.3076 66.1579C48.1163 66.9711 46.5475 66.6752 45.7343 65.4839C44.9211 64.2927 45.217 62.7239 46.4083 61.9107C47.5995 61.0975 49.1683 61.3934 49.9815 62.5846Z" fill="#494949"/>
<path d="M61.0656 55.018C61.8788 56.2093 61.5829 57.778 60.3917 58.5912C59.2004 59.4045 57.6316 59.1086 56.8184 57.9173C56.0052 56.726 56.3011 55.1573 57.4924 54.3441C58.6319 53.5662 60.2524 53.8267 61.0656 55.018Z" fill="#494949"/>
<path d="M72.0979 47.487C72.9111 48.6783 72.6152 50.247 71.424 51.0602C70.2327 51.8734 68.6639 51.5776 67.8507 50.3863C67.0375 49.195 67.3334 47.6263 68.5247 46.813C69.7159 45.9998 71.2847 46.2957 72.0979 47.487Z" fill="#494949"/>
<path d="M83.1821 39.9206C83.9953 41.1119 83.6994 42.6806 82.5081 43.4938C81.3168 44.307 79.7481 44.0112 78.9349 42.8199C78.1217 41.6286 78.4175 40.0599 79.6088 39.2466C80.8001 38.4334 82.3688 38.7293 83.1821 39.9206Z" fill="#494949"/>
<path d="M94.2662 32.3539C95.0794 33.5452 94.7835 35.114 93.5922 35.9272C92.401 36.7404 90.8322 36.4445 90.019 35.2532C89.2058 34.0619 89.5016 32.4932 90.6929 31.68C91.8842 30.8668 93.4529 31.1626 94.2662 32.3539Z" fill="#494949"/>
<path d="M105.35 24.7875C106.164 25.9788 105.868 27.5475 104.676 28.3608C103.485 29.174 101.916 28.8781 101.103 27.6868C100.29 26.4955 100.586 24.9268 101.777 24.1136C102.968 23.3004 104.537 23.5962 105.35 24.7875Z" fill="#494949"/>
<path d="M116.383 17.2565C117.196 18.4478 116.9 20.0165 115.709 20.8298C114.517 21.643 112.949 21.3471 112.135 20.1558C111.322 18.9645 111.618 17.3958 112.809 16.5826C114.001 15.7694 115.569 16.0652 116.383 17.2565Z" fill="#494949"/>
<path d="M127.467 9.68985C128.28 10.8811 127.984 12.4499 126.793 13.2631C125.601 14.0763 124.033 13.7805 123.219 12.5892C122.406 11.3979 122.702 9.82914 123.893 9.01592C125.085 8.2027 126.653 8.49857 127.467 9.68985Z" fill="#494949"/>
<path d="M138.551 2.12346C139.364 3.31474 139.068 4.88348 137.877 5.6967C136.686 6.50992 135.117 6.21404 134.304 5.02276C133.49 3.83148 133.786 2.26274 134.978 1.44952C136.169 0.636299 137.738 0.932174 138.551 2.12346Z" fill="#494949"/>
<path d="M12.5894 107.473C13.7622 106.672 14.0639 105.072 13.2633 103.899C12.4627 102.727 10.8629 102.425 9.69006 103.225C8.51723 104.026 8.2155 105.626 9.01612 106.799C9.81674 107.971 11.4165 108.273 12.5894 107.473Z" fill="#494949"/>
<path d="M23.6735 99.9059C24.8464 99.1053 25.1481 97.5055 24.3475 96.3327C23.5469 95.1599 21.9471 94.8581 20.7742 95.6587C19.6014 96.4594 19.2997 98.0592 20.1003 99.232C20.9009 100.405 22.5007 100.707 23.6735 99.9059Z" fill="#494949"/>
<path d="M34.7058 92.3749C35.8786 91.5743 36.1804 89.9745 35.3798 88.8017C34.5791 87.6289 32.9793 87.3271 31.8065 88.1277C30.6337 88.9284 30.332 90.5282 31.1326 91.701C31.9332 92.8738 33.533 93.1755 34.7058 92.3749Z" fill="#494949"/>
<path d="M45.7899 84.8085C46.9628 84.0079 47.2645 82.4081 46.4639 81.2353C45.6632 80.0624 44.0634 79.7607 42.8906 80.5613C41.7178 81.362 41.4161 82.9618 42.2167 84.1346C43.0173 85.3074 44.6171 85.6091 45.7899 84.8085Z" fill="#494949"/>
<path d="M56.874 77.2419C58.0469 76.4412 58.3486 74.8415 57.548 73.6686C56.7473 72.4958 55.1476 72.1941 53.9747 72.9947C52.8019 73.7953 52.5002 75.3951 53.3008 76.5679C54.1014 77.7408 55.7012 78.0425 56.874 77.2419Z" fill="#494949"/>
<path d="M67.9582 69.6755C69.131 68.8748 69.4328 67.275 68.6321 66.1022C67.8315 64.9294 66.2317 64.6277 65.0589 65.4283C63.8861 66.2289 63.5843 67.8287 64.385 69.0015C65.1856 70.1743 66.7854 70.4761 67.9582 69.6755Z" fill="#494949"/>
<path d="M78.9905 62.1445C80.1633 61.3438 80.465 59.744 79.6644 58.5712C78.8638 57.3984 77.264 57.0966 76.0912 57.8973C74.9184 58.6979 74.6166 60.2977 75.4172 61.4705C76.2179 62.6433 77.8177 62.9451 78.9905 62.1445Z" fill="#494949"/>
<path d="M90.0746 54.5778C91.2474 53.7772 91.5491 52.1774 90.7485 51.0046C89.9479 49.8317 88.3481 49.53 87.1753 50.3306C86.0025 51.1312 85.7007 52.731 86.5013 53.9039C87.302 55.0767 88.9018 55.3784 90.0746 54.5778Z" fill="#494949"/>
<path d="M101.159 47.0114C102.332 46.2108 102.633 44.611 101.833 43.4382C101.032 42.2653 99.4322 41.9636 98.2594 42.7642C97.0866 43.5648 96.7848 45.1646 97.5855 46.3375C98.3861 47.5103 99.9859 47.812 101.159 47.0114Z" fill="#494949"/>
<path d="M112.243 39.445C113.416 38.6444 113.717 37.0446 112.917 35.8717C112.116 34.6989 110.516 34.3972 109.344 35.1978C108.171 35.9984 107.869 37.5982 108.67 38.7711C109.47 39.9439 111.07 40.2456 112.243 39.445Z" fill="#494949"/>
<path d="M123.949 28.3405C124.762 29.5318 124.466 31.1005 123.275 31.9137C122.084 32.727 120.515 32.4311 119.702 31.2398C118.889 30.0485 119.185 28.4798 120.376 27.6666C121.567 26.8533 123.136 27.1492 123.949 28.3405Z" fill="#494949"/>
<path d="M134.359 24.3473C135.532 23.5467 135.834 21.9469 135.033 20.7741C134.233 19.6013 132.633 19.2995 131.46 20.1002C130.287 20.9008 129.985 22.5006 130.786 23.6734C131.587 24.8462 133.186 25.148 134.359 24.3473Z" fill="#494949"/>
<path d="M145.443 16.7809C146.616 15.9803 146.918 14.3805 146.117 13.2077C145.317 12.0349 143.717 11.7331 142.544 12.5337C141.371 13.3344 141.07 14.9342 141.87 16.107C142.671 17.2798 144.271 17.5816 145.443 16.7809Z" fill="#494949"/>
<path d="M20.1204 118.505C21.2933 117.704 21.595 116.104 20.7944 114.932C19.9937 113.759 18.394 113.457 17.2211 114.258C16.0483 115.058 15.7466 116.658 16.5472 117.831C17.3478 119.004 18.9476 119.305 20.1204 118.505Z" fill="#494949"/>
<path d="M31.2046 110.938C32.3774 110.138 32.6792 108.538 31.8785 107.365C31.0779 106.192 29.4781 105.89 28.3053 106.691C27.1325 107.492 26.8307 109.091 27.6314 110.264C28.432 111.437 30.0318 111.739 31.2046 110.938Z" fill="#494949"/>
<path d="M42.2369 103.407C43.4097 102.607 43.7114 101.007 42.9108 99.8339C42.1102 98.6611 40.5104 98.3593 39.3376 99.16C38.1648 99.9606 37.863 101.56 38.6636 102.733C39.4643 103.906 41.0641 104.208 42.2369 103.407Z" fill="#494949"/>
<path d="M53.321 95.8407C54.4938 95.0401 54.7956 93.4403 53.9949 92.2675C53.1943 91.0947 51.5945 90.7929 50.4217 91.5936C49.2489 92.3942 48.9471 93.994 49.7477 95.1668C50.5484 96.3396 52.1482 96.6414 53.321 95.8407Z" fill="#494949"/>
<path d="M64.4051 88.2741C65.5779 87.4735 65.8797 85.8737 65.079 84.7009C64.2784 83.528 62.6786 83.2263 61.5058 84.0269C60.333 84.8275 60.0312 86.4273 60.8319 87.6002C61.6325 88.773 63.2323 89.0747 64.4051 88.2741Z" fill="#494949"/>
<path d="M75.4892 80.7077C76.662 79.9071 76.9638 78.3073 76.1631 77.1344C75.3625 75.9616 73.7627 75.6599 72.5899 76.4605C71.4171 77.2611 71.1153 78.8609 71.916 80.0337C72.7166 81.2066 74.3164 81.5083 75.4892 80.7077Z" fill="#494949"/>
<path d="M86.5216 73.1767C87.6944 72.3761 87.9961 70.7763 87.1955 69.6034C86.3949 68.4306 84.7951 68.1289 83.6223 68.9295C82.4494 69.7301 82.1477 71.3299 82.9483 72.5027C83.7489 73.6756 85.3487 73.9773 86.5216 73.1767Z" fill="#494949"/>
<path d="M97.6057 65.61C98.7785 64.8094 99.0802 63.2096 98.2796 62.0368C97.479 60.864 95.8792 60.5622 94.7063 61.3629C93.5335 62.1635 93.2318 63.7633 94.0324 64.9361C94.833 66.1089 96.4328 66.4107 97.6057 65.61Z" fill="#494949"/>
<path d="M108.69 58.0436C109.863 57.243 110.164 55.6432 109.364 54.4704C108.563 53.2976 106.963 52.9958 105.79 53.7964C104.618 54.5971 104.316 56.1969 105.117 57.3697C105.917 58.5425 107.517 58.8442 108.69 58.0436Z" fill="#494949"/>
<path d="M119.774 50.4772C120.947 49.6766 121.248 48.0768 120.448 46.904C119.647 45.7311 118.047 45.4294 116.875 46.23C115.702 47.0307 115.4 48.6305 116.201 49.8033C117.001 50.9761 118.601 51.2778 119.774 50.4772Z" fill="#494949"/>
<path d="M131.48 39.3727C132.293 40.564 131.998 42.1327 130.806 42.946C129.615 43.7592 128.046 43.4633 127.233 42.272C126.42 41.0807 126.716 39.512 127.907 38.6988C129.134 37.9374 130.702 38.2332 131.48 39.3727Z" fill="#494949"/>
<path d="M141.89 35.3796C143.063 34.5789 143.365 32.9791 142.564 31.8063C141.764 30.6335 140.164 30.3318 138.991 31.1324C137.818 31.933 137.516 33.5328 138.317 34.7056C139.118 35.8785 140.718 36.1802 141.89 35.3796Z" fill="#494949"/>
<path d="M152.974 27.8132C154.147 27.0125 154.449 25.4127 153.648 24.2399C152.848 23.0671 151.248 22.7654 150.075 23.566C148.902 24.3666 148.601 25.9664 149.401 27.1392C150.202 28.312 151.802 28.6138 152.974 27.8132Z" fill="#494949"/>
<path d="M27.687 129.589C28.8598 128.788 29.1615 127.188 28.3609 126.016C27.5603 124.843 25.9605 124.541 24.7877 125.342C23.6148 126.142 23.3131 127.742 24.1137 128.915C24.9143 130.088 26.5141 130.389 27.687 129.589Z" fill="#494949"/>
<path d="M38.7711 122.022C39.9439 121.222 40.2456 119.622 39.445 118.449C38.6444 117.276 37.0446 116.975 35.8718 117.775C34.6989 118.576 34.3972 120.176 35.1978 121.348C35.9984 122.521 37.5982 122.823 38.7711 122.022Z" fill="#494949"/>
<path d="M49.8034 114.491C50.9762 113.691 51.2779 112.091 50.4773 110.918C49.6767 109.745 48.0769 109.444 46.904 110.244C45.7312 111.045 45.4295 112.645 46.2301 113.817C47.0307 114.99 48.6305 115.292 49.8034 114.491Z" fill="#494949"/>
<path d="M60.8875 106.925C62.0604 106.124 62.3621 104.524 61.5615 103.351C60.7608 102.179 59.161 101.877 57.9882 102.678C56.8154 103.478 56.5137 105.078 57.3143 106.251C58.1149 107.424 59.7147 107.725 60.8875 106.925Z" fill="#494949"/>
<path d="M71.9716 99.3583C73.1445 98.5577 73.4462 96.9579 72.6456 95.7851C71.8449 94.6123 70.2451 94.3105 69.0723 95.1111C67.8995 95.9118 67.5978 97.5116 68.3984 98.6844C69.199 99.8572 70.7988 100.159 71.9716 99.3583Z" fill="#494949"/>
<path d="M83.0557 91.7919C84.2286 90.9913 84.5303 89.3915 83.7297 88.2187C82.929 87.0458 81.3293 86.7441 80.1564 87.5447C78.9836 88.3454 78.6819 89.9451 79.4825 91.118C80.2831 92.2908 81.8829 92.5925 83.0557 91.7919Z" fill="#494949"/>
<path d="M94.088 84.2607C95.2609 83.46 95.5626 81.8602 94.762 80.6874C93.9613 79.5146 92.3615 79.2129 91.1887 80.0135C90.0159 80.8141 89.7142 82.4139 90.5148 83.5867C91.3154 84.7596 92.9152 85.0613 94.088 84.2607Z" fill="#494949"/>
<path d="M105.172 76.6943C106.345 75.8936 106.647 74.2938 105.846 73.121C105.046 71.9482 103.446 71.6465 102.273 72.4471C101.1 73.2477 100.798 74.8475 101.599 76.0203C102.4 77.1931 103.999 77.4949 105.172 76.6943Z" fill="#494949"/>
<path d="M116.256 69.1279C117.429 68.3272 117.731 66.7274 116.93 65.5546C116.13 64.3818 114.53 64.08 113.357 64.8807C112.184 65.6813 111.882 67.2811 112.683 68.4539C113.484 69.6267 115.083 69.9285 116.256 69.1279Z" fill="#494949"/>
<path d="M127.34 61.5612C128.513 60.7606 128.815 59.1608 128.014 57.988C127.214 56.8151 125.614 56.5134 124.441 57.314C123.268 58.1146 122.967 59.7144 123.767 60.8873C124.568 62.0601 126.168 62.3618 127.34 61.5612Z" fill="#494949"/>
<path d="M139.047 50.457C139.86 51.6482 139.564 53.217 138.373 54.0302C137.181 54.8434 135.613 54.5475 134.799 53.3563C133.986 52.165 134.282 50.5962 135.473 49.783C136.665 48.9698 138.269 49.3175 139.047 50.457Z" fill="#494949"/>
<path d="M149.457 46.4638C150.63 45.6632 150.931 44.0634 150.131 42.8905C149.33 41.7177 147.73 41.416 146.558 42.2166C145.385 43.0172 145.083 44.617 145.884 45.7899C146.684 46.9627 148.284 47.2644 149.457 46.4638Z" fill="#494949"/>
<path d="M160.541 38.8971C161.714 38.0965 162.015 36.4967 161.215 35.3239C160.414 34.1511 158.814 33.8493 157.642 34.65C156.469 35.4506 156.167 37.0504 156.968 38.2232C157.768 39.396 159.368 39.6978 160.541 38.8971Z" fill="#494949"/>
<path d="M35.2534 140.673C36.4263 139.872 36.728 138.273 35.9274 137.1C35.1267 135.927 33.5269 135.625 32.3541 136.426C31.1813 137.226 30.8796 138.826 31.6802 139.999C32.4808 141.172 34.0806 141.474 35.2534 140.673Z" fill="#494949"/>
<path d="M46.3376 133.107C47.5104 132.306 47.8122 130.706 47.0115 129.533C46.2109 128.361 44.6111 128.059 43.4383 128.859C42.2655 129.66 41.9637 131.26 42.7643 132.433C43.565 133.605 45.1648 133.907 46.3376 133.107Z" fill="#494949"/>
<path d="M57.3699 125.575C58.5427 124.775 58.8444 123.175 58.0438 122.002C57.2432 120.829 55.6434 120.528 54.4706 121.328C53.2977 122.129 52.996 123.729 53.7966 124.901C54.5973 126.074 56.1971 126.376 57.3699 125.575Z" fill="#494949"/>
<path d="M68.454 118.009C69.6268 117.208 69.9286 115.609 69.1279 114.436C68.3273 113.263 66.7275 112.961 65.5547 113.762C64.3819 114.562 64.0801 116.162 64.8807 117.335C65.6814 118.508 67.2812 118.81 68.454 118.009Z" fill="#494949"/>
<path d="M79.5381 110.443C80.7109 109.642 81.0127 108.042 80.212 106.869C79.4114 105.696 77.8116 105.395 76.6388 106.195C75.466 106.996 75.1642 108.596 75.9648 109.769C76.7655 110.941 78.3653 111.243 79.5381 110.443Z" fill="#494949"/>
<path d="M90.6223 102.876C91.7951 102.075 92.0968 100.475 91.2962 99.3027C90.4956 98.1298 88.8958 97.8281 87.723 98.6287C86.5501 99.4293 86.2484 101.029 87.049 102.202C87.8496 103.375 89.4494 103.677 90.6223 102.876Z" fill="#494949"/>
<path d="M101.655 95.3449C102.827 94.5443 103.129 92.9445 102.328 91.7716C101.528 90.5988 99.9281 90.2971 98.7552 91.0977C97.5824 91.8983 97.2807 93.4981 98.0813 94.671C98.8819 95.8438 100.482 96.1455 101.655 95.3449Z" fill="#494949"/>
<path d="M112.739 87.7785C113.911 86.9779 114.213 85.3781 113.413 84.2052C112.612 83.0324 111.012 82.7307 109.839 83.5313C108.667 84.3319 108.365 85.9317 109.165 87.1045C109.966 88.2774 111.566 88.5791 112.739 87.7785Z" fill="#494949"/>
<path d="M123.823 80.2118C124.996 79.4112 125.297 77.8114 124.497 76.6386C123.696 75.4658 122.096 75.164 120.923 75.9647C119.751 76.7653 119.449 78.3651 120.25 79.5379C121.05 80.7107 122.65 81.0125 123.823 80.2118Z" fill="#494949"/>
<path d="M134.907 72.6454C136.08 71.8448 136.381 70.245 135.581 69.0722C134.78 67.8994 133.18 67.5976 132.008 68.3982C130.835 69.1989 130.533 70.7987 131.334 71.9715C132.134 73.1443 133.734 73.446 134.907 72.6454Z" fill="#494949"/>
<path d="M146.613 61.5412C147.426 62.7325 147.131 64.3012 145.939 65.1144C144.748 65.9276 143.179 65.6318 142.366 64.4405C141.553 63.2492 141.849 61.6805 143.04 60.8672C144.231 60.054 145.8 60.3499 146.613 61.5412Z" fill="#494949"/>
<path d="M157.023 57.5478C158.196 56.7471 158.498 55.1473 157.697 53.9745C156.897 52.8017 155.297 52.5 154.124 53.3006C152.951 54.1012 152.649 55.701 153.45 56.8738C154.251 58.0467 155.85 58.3484 157.023 57.5478Z" fill="#494949"/>
<path d="M168.107 49.9814C169.28 49.1807 169.582 47.581 168.781 46.4081C167.981 45.2353 166.381 44.9336 165.208 45.7342C164.035 46.5348 163.734 48.1346 164.534 49.3074C165.335 50.4803 166.935 50.782 168.107 49.9814Z" fill="#494949"/>
<path d="M42.82 151.757C43.9928 150.957 44.2945 149.357 43.4939 148.184C42.6933 147.011 41.0935 146.709 39.9207 147.51C38.7478 148.311 38.4461 149.91 39.2467 151.083C40.0473 152.256 41.6471 152.558 42.82 151.757Z" fill="#494949"/>
<path d="M53.9041 144.191C55.0769 143.39 55.3786 141.79 54.578 140.617C53.7774 139.445 52.1776 139.143 51.0048 139.943C49.8319 140.744 49.5302 142.344 50.3308 143.517C51.1314 144.689 52.7312 144.991 53.9041 144.191Z" fill="#494949"/>
<path d="M64.9364 136.66C66.1092 135.859 66.411 134.259 65.6103 133.086C64.8097 131.914 63.2099 131.612 62.0371 132.412C60.8643 133.213 60.5625 134.813 61.3632 135.986C62.1638 137.158 63.7636 137.46 64.9364 136.66Z" fill="#494949"/>
<path d="M76.0205 129.093C77.1933 128.293 77.4951 126.693 76.6945 125.52C75.8938 124.347 74.294 124.045 73.1212 124.846C71.9484 125.647 71.6466 127.246 72.4473 128.419C73.2479 129.592 74.8477 129.894 76.0205 129.093Z" fill="#494949"/>
<path d="M87.1046 121.527C88.2774 120.726 88.5792 119.126 87.7786 117.953C86.9779 116.78 85.3781 116.479 84.2053 117.279C83.0325 118.08 82.7308 119.68 83.5314 120.853C84.332 122.025 85.9318 122.327 87.1046 121.527Z" fill="#494949"/>
<path d="M98.1887 113.96C99.3615 113.16 99.6633 111.56 98.8627 110.387C98.062 109.214 96.4622 108.912 95.2894 109.713C94.1166 110.514 93.8149 112.113 94.6155 113.286C95.4161 114.459 97.0159 114.761 98.1887 113.96Z" fill="#494949"/>
<path d="M109.221 106.429C110.394 105.628 110.696 104.029 109.895 102.856C109.094 101.683 107.495 101.381 106.322 102.182C105.149 102.983 104.847 104.582 105.648 105.755C106.448 106.928 108.048 107.23 109.221 106.429Z" fill="#494949"/>
<path d="M120.305 98.8625C121.478 98.0619 121.78 96.4621 120.979 95.2892C120.178 94.1164 118.579 93.8147 117.406 94.6153C116.233 95.4159 115.931 97.0157 116.732 98.1885C117.533 99.3614 119.132 99.6631 120.305 98.8625Z" fill="#494949"/>
<path d="M131.389 91.2961C132.562 90.4954 132.864 88.8957 132.063 87.7228C131.263 86.55 129.663 86.2483 128.49 87.0489C127.317 87.8495 127.015 89.4493 127.816 90.6221C128.617 91.795 130.216 92.0967 131.389 91.2961Z" fill="#494949"/>
<path d="M142.473 83.7297C143.646 82.929 143.948 81.3292 143.147 80.1564C142.347 78.9836 140.747 78.6819 139.574 79.4825C138.401 80.2831 138.1 81.8829 138.9 83.0557C139.701 84.2285 141.301 84.5303 142.473 83.7297Z" fill="#494949"/>
<path d="M154.18 72.6252C154.993 73.8164 154.697 75.3852 153.506 76.1984C152.314 77.0116 150.746 76.7157 149.932 75.5245C149.119 74.3332 149.415 72.7644 150.606 71.9512C151.798 71.138 153.366 71.4339 154.18 72.6252Z" fill="#494949"/>
<path d="M164.59 68.632C165.763 67.8314 166.064 66.2316 165.264 65.0587C164.463 63.8859 162.863 63.5842 161.691 64.3848C160.518 65.1854 160.216 66.7852 161.017 67.9581C161.817 69.1309 163.417 69.4326 164.59 68.632Z" fill="#494949"/>
<path d="M175.674 61.0656C176.847 60.265 177.148 58.6652 176.348 57.4924C175.547 56.3195 173.947 56.0178 172.775 56.8184C171.602 57.619 171.3 59.2188 172.101 60.3917C172.901 61.5645 174.501 61.8662 175.674 61.0656Z" fill="#494949"/>
<path d="M50.351 162.789C51.5238 161.989 51.8256 160.389 51.025 159.216C50.2243 158.043 48.6245 157.742 47.4517 158.542C46.2789 159.343 45.9772 160.943 46.7778 162.116C47.5784 163.288 49.1782 163.59 50.351 162.789Z" fill="#494949"/>
<path d="M61.4351 155.223C62.608 154.422 62.9097 152.822 62.1091 151.65C61.3084 150.477 59.7087 150.175 58.5358 150.976C57.363 151.776 57.0613 153.376 57.8619 154.549C58.6625 155.722 60.2623 156.023 61.4351 155.223Z" fill="#494949"/>
<path d="M72.4674 147.692C73.6402 146.891 73.942 145.291 73.1414 144.119C72.3407 142.946 70.7409 142.644 69.5681 143.445C68.3953 144.245 68.0936 145.845 68.8942 147.018C69.6948 148.191 71.2946 148.492 72.4674 147.692Z" fill="#494949"/>
<path d="M83.5515 140.125C84.7243 139.325 85.0261 137.725 84.2255 136.552C83.4248 135.379 81.825 135.078 80.6522 135.878C79.4794 136.679 79.1777 138.279 79.9783 139.451C80.7789 140.624 82.3787 140.926 83.5515 140.125Z" fill="#494949"/>
<path d="M94.6357 132.559C95.8085 131.758 96.1103 130.158 95.3096 128.986C94.509 127.813 92.9092 127.511 91.7364 128.312C90.5636 129.112 90.2618 130.712 91.0624 131.885C91.8631 133.058 93.4629 133.359 94.6357 132.559Z" fill="#494949"/>
<path d="M105.72 124.992C106.893 124.192 107.194 122.592 106.394 121.419C105.593 120.246 103.993 119.945 102.82 120.745C101.648 121.546 101.346 123.146 102.147 124.318C102.947 125.491 104.547 125.793 105.72 124.992Z" fill="#494949"/>
<path d="M116.752 117.461C117.925 116.661 118.227 115.061 117.426 113.888C116.625 112.715 115.026 112.414 113.853 113.214C112.68 114.015 112.378 115.615 113.179 116.787C113.979 117.96 115.579 118.262 116.752 117.461Z" fill="#494949"/>
<path d="M127.836 109.895C129.009 109.094 129.311 107.494 128.51 106.321C127.71 105.149 126.11 104.847 124.937 105.648C123.764 106.448 123.462 108.048 124.263 109.221C125.064 110.394 126.663 110.695 127.836 109.895Z" fill="#494949"/>
<path d="M138.92 102.328C140.093 101.528 140.395 99.9279 139.594 98.7551C138.794 97.5822 137.194 97.2805 136.021 98.0811C134.848 98.8817 134.546 100.482 135.347 101.654C136.148 102.827 137.747 103.129 138.92 102.328Z" fill="#494949"/>
<path d="M150.004 94.7619C151.177 93.9613 151.479 92.3615 150.678 91.1886C149.878 90.0158 148.278 89.7141 147.105 90.5147C145.932 91.3153 145.631 92.9151 146.431 94.088C147.232 95.2608 148.832 95.5625 150.004 94.7619Z" fill="#494949"/>
<path d="M161.711 83.6574C162.524 84.8487 162.228 86.4174 161.037 87.2306C159.845 88.0439 158.277 87.748 157.464 86.5567C156.65 85.3654 156.946 83.7967 158.137 82.9835C159.364 82.222 160.933 82.5179 161.711 83.6574Z" fill="#494949"/>
<path d="M172.121 79.6642C173.294 78.8636 173.595 77.2638 172.795 76.091C171.994 74.9182 170.394 74.6164 169.222 75.417C168.049 76.2177 167.747 77.8175 168.548 78.9903C169.348 80.1631 170.948 80.4649 172.121 79.6642Z" fill="#494949"/>
<path d="M183.205 72.0978C184.378 71.2972 184.68 69.6974 183.879 68.5246C183.078 67.3518 181.479 67.05 180.306 67.8506C179.133 68.6513 178.831 70.2511 179.632 71.4239C180.432 72.5967 182.032 72.8984 183.205 72.0978Z" fill="#494949"/>
<path d="M57.9175 173.873C59.0903 173.073 59.3921 171.473 58.5914 170.3C57.7908 169.127 56.191 168.826 55.0182 169.626C53.8454 170.427 53.5436 172.027 54.3442 173.2C55.1449 174.372 56.7447 174.674 57.9175 173.873Z" fill="#494949"/>
<path d="M69.0016 166.307C70.1744 165.506 70.4762 163.907 69.6755 162.734C68.8749 161.561 67.2751 161.259 66.1023 162.06C64.9295 162.86 64.6277 164.46 65.4284 165.633C66.229 166.806 67.8288 167.108 69.0016 166.307Z" fill="#494949"/>
<path d="M80.0339 158.776C81.2068 157.975 81.5085 156.376 80.7079 155.203C79.9073 154.03 78.3075 153.728 77.1346 154.529C75.9618 155.329 75.6601 156.929 76.4607 158.102C77.2613 159.275 78.8611 159.577 80.0339 158.776Z" fill="#494949"/>
<path d="M91.1181 151.209C92.2909 150.409 92.5926 148.809 91.792 147.636C90.9914 146.463 89.3916 146.162 88.2187 146.962C87.0459 147.763 86.7442 149.363 87.5448 150.535C88.3454 151.708 89.9452 152.01 91.1181 151.209Z" fill="#494949"/>
<path d="M102.202 143.643C103.375 142.842 103.677 141.243 102.876 140.07C102.075 138.897 100.476 138.595 99.3029 139.396C98.13 140.196 97.8283 141.796 98.6289 142.969C99.4295 144.142 101.029 144.444 102.202 143.643Z" fill="#494949"/>
<path d="M113.286 136.077C114.459 135.276 114.761 133.676 113.96 132.503C113.16 131.331 111.56 131.029 110.387 131.829C109.214 132.63 108.912 134.23 109.713 135.403C110.514 136.575 112.113 136.877 113.286 136.077Z" fill="#494949"/>
<path d="M124.319 128.545C125.491 127.745 125.793 126.145 124.993 124.972C124.192 123.799 122.592 123.498 121.419 124.298C120.246 125.099 119.945 126.699 120.745 127.871C121.546 129.044 123.146 129.346 124.319 128.545Z" fill="#494949"/>
<path d="M135.403 120.979C136.576 120.178 136.877 118.579 136.077 117.406C135.276 116.233 133.676 115.931 132.503 116.732C131.331 117.532 131.029 119.132 131.829 120.305C132.63 121.478 134.23 121.78 135.403 120.979Z" fill="#494949"/>
<path d="M146.487 113.413C147.66 112.612 147.961 111.012 147.161 109.839C146.36 108.666 144.76 108.365 143.588 109.165C142.415 109.966 142.113 111.566 142.914 112.739C143.714 113.911 145.314 114.213 146.487 113.413Z" fill="#494949"/>
<path d="M157.571 105.846C158.744 105.045 159.045 103.445 158.245 102.273C157.444 101.1 155.844 100.798 154.672 101.599C153.499 102.399 153.197 103.999 153.998 105.172C154.798 106.345 156.398 106.646 157.571 105.846Z" fill="#494949"/>
<path d="M169.277 94.7416C170.09 95.9329 169.795 97.5016 168.603 98.3149C167.412 99.1281 165.843 98.8322 165.03 97.6409C164.217 96.4496 164.513 94.8809 165.704 94.0677C166.895 93.2545 168.499 93.6021 169.277 94.7416Z" fill="#494949"/>
<path d="M179.687 90.7485C180.86 89.9478 181.162 88.348 180.361 87.1752C179.561 86.0024 177.961 85.7007 176.788 86.5013C175.615 87.3019 175.314 88.9017 176.114 90.0745C176.915 91.2473 178.515 91.5491 179.687 90.7485Z" fill="#494949"/>
<path d="M190.771 83.1818C191.944 82.3812 192.246 80.7814 191.445 79.6086C190.645 78.4357 189.045 78.134 187.872 78.9346C186.699 79.7352 186.398 81.335 187.198 82.5079C187.999 83.6807 189.599 83.9824 190.771 83.1818Z" fill="#494949"/>
<path d="M65.484 184.958C66.6568 184.157 66.9586 182.557 66.158 181.384C65.3573 180.212 63.7575 179.91 62.5847 180.711C61.4119 181.511 61.1102 183.111 61.9108 184.284C62.7114 185.457 64.3112 185.758 65.484 184.958Z" fill="#494949"/>
<path d="M76.5681 177.391C77.7409 176.591 78.0427 174.991 77.2421 173.818C76.4414 172.645 74.8416 172.343 73.6688 173.144C72.496 173.945 72.1943 175.545 72.9949 176.717C73.7955 177.89 75.3953 178.192 76.5681 177.391Z" fill="#494949"/>
<path d="M87.6004 169.86C88.7732 169.059 89.075 167.46 88.2744 166.287C87.4737 165.114 85.8739 164.812 84.7011 165.613C83.5283 166.413 83.2265 168.013 84.0272 169.186C84.8278 170.359 86.4276 170.661 87.6004 169.86Z" fill="#494949"/>
<path d="M98.6845 162.294C99.8573 161.493 100.159 159.893 99.3585 158.72C98.5578 157.548 96.958 157.246 95.7852 158.046C94.6124 158.847 94.3107 160.447 95.1113 161.62C95.9119 162.793 97.5117 163.094 98.6845 162.294Z" fill="#494949"/>
<path d="M109.769 154.727C110.942 153.927 111.243 152.327 110.443 151.154C109.642 149.981 108.042 149.679 106.869 150.48C105.697 151.281 105.395 152.88 106.195 154.053C106.996 155.226 108.596 155.528 109.769 154.727Z" fill="#494949"/>
<path d="M120.853 147.161C122.026 146.36 122.327 144.76 121.527 143.587C120.726 142.415 119.126 142.113 117.953 142.913C116.781 143.714 116.479 145.314 117.28 146.487C118.08 147.659 119.68 147.961 120.853 147.161Z" fill="#494949"/>
<path d="M131.885 139.63C133.058 138.829 133.36 137.229 132.559 136.056C131.758 134.883 130.159 134.582 128.986 135.382C127.813 136.183 127.511 137.783 128.312 138.956C129.112 140.128 130.712 140.43 131.885 139.63Z" fill="#494949"/>
<path d="M142.969 132.063C144.142 131.263 144.444 129.663 143.643 128.49C142.843 127.317 141.243 127.015 140.07 127.816C138.897 128.617 138.595 130.216 139.396 131.389C140.197 132.562 141.796 132.864 142.969 132.063Z" fill="#494949"/>
<path d="M154.053 124.496C155.226 123.696 155.528 122.096 154.727 120.923C153.927 119.75 152.327 119.449 151.154 120.249C149.981 121.05 149.679 122.65 150.48 123.823C151.281 124.995 152.88 125.297 154.053 124.496Z" fill="#494949"/>
<path d="M165.137 116.93C166.31 116.129 166.612 114.53 165.811 113.357C165.011 112.184 163.411 111.882 162.238 112.683C161.065 113.484 160.764 115.083 161.564 116.256C162.365 117.429 163.965 117.731 165.137 116.93Z" fill="#494949"/>
<path d="M176.844 105.826C177.657 107.017 177.361 108.586 176.17 109.399C174.978 110.212 173.41 109.916 172.597 108.725C171.783 107.534 172.079 105.965 173.27 105.152C174.462 104.339 176.03 104.635 176.844 105.826Z" fill="#494949"/>
<path d="M187.254 101.832C188.427 101.032 188.728 99.432 187.928 98.2592C187.127 97.0864 185.527 96.7846 184.355 97.5853C183.182 98.3859 182.88 99.9857 183.681 101.159C184.481 102.331 186.081 102.633 187.254 101.832Z" fill="#494949"/>
<path d="M198.338 94.266C199.511 93.4654 199.813 91.8656 199.012 90.6928C198.211 89.52 196.612 89.2182 195.439 90.0189C194.266 90.8195 193.964 92.4193 194.765 93.5921C195.565 94.7649 197.165 95.0667 198.338 94.266Z" fill="#494949"/>
<path d="M73.0505 196.042C74.2233 195.241 74.525 193.641 73.7244 192.469C72.9238 191.296 71.324 190.994 70.1512 191.795C68.9784 192.595 68.6766 194.195 69.4772 195.368C70.2779 196.541 71.8777 196.843 73.0505 196.042Z" fill="#494949"/>
<path d="M84.1346 188.475C85.3074 187.675 85.6092 186.075 84.8085 184.902C84.0079 183.729 82.4081 183.427 81.2353 184.228C80.0625 185.029 79.7607 186.629 80.5613 187.801C81.362 188.974 82.9618 189.276 84.1346 188.475Z" fill="#494949"/>
<path d="M95.1669 180.944C96.3398 180.144 96.6415 178.544 95.8409 177.371C95.0403 176.198 93.4405 175.896 92.2676 176.697C91.0948 177.498 90.7931 179.097 91.5937 180.27C92.3943 181.443 93.9941 181.745 95.1669 180.944Z" fill="#494949"/>
<path d="M106.251 173.378C107.424 172.577 107.726 170.977 106.925 169.805C106.124 168.632 104.525 168.33 103.352 169.131C102.179 169.931 101.877 171.531 102.678 172.704C103.478 173.877 105.078 174.178 106.251 173.378Z" fill="#494949"/>
<path d="M117.335 165.811C118.508 165.011 118.81 163.411 118.009 162.238C117.208 161.065 115.609 160.763 114.436 161.564C113.263 162.365 112.961 163.964 113.762 165.137C114.563 166.31 116.162 166.612 117.335 165.811Z" fill="#494949"/>
<path d="M128.419 158.245C129.592 157.444 129.894 155.844 129.093 154.672C128.293 153.499 126.693 153.197 125.52 153.998C124.347 154.798 124.045 156.398 124.846 157.571C125.647 158.744 127.246 159.045 128.419 158.245Z" fill="#494949"/>
<path d="M139.452 150.714C140.624 149.913 140.926 148.313 140.126 147.141C139.325 145.968 137.725 145.666 136.552 146.467C135.379 147.267 135.078 148.867 135.878 150.04C136.679 151.213 138.279 151.514 139.452 150.714Z" fill="#494949"/>
<path d="M150.536 143.147C151.709 142.347 152.01 140.747 151.21 139.574C150.409 138.401 148.809 138.099 147.636 138.9C146.464 139.701 146.162 141.3 146.962 142.473C147.763 143.646 149.363 143.948 150.536 143.147Z" fill="#494949"/>
<path d="M161.62 135.581C162.793 134.78 163.094 133.18 162.294 132.007C161.493 130.835 159.893 130.533 158.721 131.334C157.548 132.134 157.246 133.734 158.047 134.907C158.847 136.08 160.447 136.381 161.62 135.581Z" fill="#494949"/>
<path d="M172.704 128.014C173.877 127.214 174.178 125.614 173.378 124.441C172.577 123.268 170.977 122.967 169.805 123.767C168.632 124.568 168.33 126.168 169.131 127.34C169.931 128.513 171.531 128.815 172.704 128.014Z" fill="#494949"/>
<path d="M184.41 116.91C185.223 118.101 184.928 119.67 183.736 120.483C182.545 121.296 180.976 121 180.163 119.809C179.35 118.618 179.646 117.049 180.837 116.236C182.028 115.423 183.597 115.719 184.41 116.91Z" fill="#494949"/>
<path d="M194.82 112.917C195.993 112.116 196.295 110.516 195.494 109.343C194.694 108.171 193.094 107.869 191.921 108.669C190.748 109.47 190.447 111.07 191.247 112.243C192.048 113.416 193.648 113.717 194.82 112.917Z" fill="#494949"/>
<path d="M205.904 105.35C207.077 104.55 207.379 102.95 206.578 101.777C205.778 100.604 204.178 100.302 203.005 101.103C201.832 101.904 201.531 103.504 202.331 104.676C203.132 105.849 204.732 106.151 205.904 105.35Z" fill="#494949"/>
<path d="M80.5816 207.074C81.7544 206.274 82.0561 204.674 81.2555 203.501C80.4549 202.328 78.8551 202.026 77.6822 202.827C76.5094 203.628 76.2077 205.227 77.0083 206.4C77.8089 207.573 79.4087 207.875 80.5816 207.074Z" fill="#494949"/>
<path d="M91.6657 199.507C92.8385 198.707 93.1402 197.107 92.3396 195.934C91.539 194.761 89.9392 194.46 88.7664 195.26C87.5935 196.061 87.2918 197.661 88.0924 198.834C88.893 200.006 90.4928 200.308 91.6657 199.507Z" fill="#494949"/>
<path d="M102.698 191.976C103.871 191.176 104.173 189.576 103.372 188.403C102.571 187.23 100.972 186.929 99.7987 187.729C98.6259 188.53 98.3241 190.13 99.1248 191.303C99.9254 192.475 101.525 192.777 102.698 191.976Z" fill="#494949"/>
<path d="M113.782 184.41C114.955 183.609 115.257 182.01 114.456 180.837C113.655 179.664 112.056 179.362 110.883 180.163C109.71 180.964 109.408 182.563 110.209 183.736C111.009 184.909 112.609 185.211 113.782 184.41Z" fill="#494949"/>
<path d="M124.866 176.843C126.039 176.043 126.341 174.443 125.54 173.27C124.74 172.097 123.14 171.796 121.967 172.596C120.794 173.397 120.492 174.997 121.293 176.169C122.094 177.342 123.693 177.644 124.866 176.843Z" fill="#494949"/>
<path d="M135.95 169.277C137.123 168.476 137.425 166.877 136.624 165.704C135.824 164.531 134.224 164.229 133.051 165.03C131.878 165.83 131.576 167.43 132.377 168.603C133.178 169.776 134.777 170.078 135.95 169.277Z" fill="#494949"/>
<path d="M146.983 161.746C148.155 160.945 148.457 159.346 147.657 158.173C146.856 157 145.256 156.698 144.083 157.499C142.911 158.299 142.609 159.899 143.409 161.072C144.21 162.245 145.81 162.547 146.983 161.746Z" fill="#494949"/>
<path d="M158.067 154.179C159.24 153.379 159.541 151.779 158.741 150.606C157.94 149.433 156.34 149.132 155.167 149.932C153.995 150.733 153.693 152.333 154.494 153.505C155.294 154.678 156.894 154.98 158.067 154.179Z" fill="#494949"/>
<path d="M169.151 146.613C170.324 145.812 170.625 144.213 169.825 143.04C169.024 141.867 167.424 141.565 166.252 142.366C165.079 143.166 164.777 144.766 165.578 145.939C166.378 147.112 167.978 147.414 169.151 146.613Z" fill="#494949"/>
<path d="M180.235 139.047C181.408 138.246 181.71 136.646 180.909 135.473C180.108 134.3 178.509 133.999 177.336 134.799C176.163 135.6 175.861 137.2 176.662 138.373C177.462 139.545 179.062 139.847 180.235 139.047Z" fill="#494949"/>
<path d="M191.941 127.942C192.754 129.133 192.459 130.702 191.267 131.515C190.076 132.329 188.507 132.033 187.694 130.841C186.881 129.65 187.177 128.081 188.368 127.268C189.595 126.507 191.163 126.803 191.941 127.942Z" fill="#494949"/>
<path d="M202.351 123.949C203.524 123.148 203.826 121.548 203.025 120.376C202.225 119.203 200.625 118.901 199.452 119.702C198.279 120.502 197.978 122.102 198.778 123.275C199.579 124.448 201.179 124.75 202.351 123.949Z" fill="#494949"/>
<path d="M213.436 116.382C214.608 115.582 214.91 113.982 214.109 112.809C213.309 111.636 211.709 111.335 210.536 112.135C209.363 112.936 209.062 114.536 209.862 115.709C210.663 116.881 212.263 117.183 213.436 116.382Z" fill="#494949"/>
<path d="M88.1481 218.158C89.3209 217.358 89.6226 215.758 88.822 214.585C88.0214 213.412 86.4216 213.11 85.2488 213.911C84.0759 214.712 83.7742 216.311 84.5748 217.484C85.3755 218.657 86.9753 218.959 88.1481 218.158Z" fill="#494949"/>
<path d="M99.2322 210.592C100.405 209.791 100.707 208.191 99.9061 207.018C99.1055 205.846 97.5057 205.544 96.3329 206.345C95.1601 207.145 94.8583 208.745 95.6589 209.918C96.4596 211.091 98.0594 211.392 99.2322 210.592Z" fill="#494949"/>
<path d="M110.264 203.061C111.437 202.26 111.739 200.66 110.938 199.487C110.138 198.315 108.538 198.013 107.365 198.814C106.192 199.614 105.891 201.214 106.691 202.387C107.492 203.56 109.092 203.861 110.264 203.061Z" fill="#494949"/>
<path d="M121.349 195.494C122.521 194.693 122.823 193.094 122.023 191.921C121.222 190.748 119.622 190.446 118.449 191.247C117.276 192.048 116.975 193.647 117.775 194.82C118.576 195.993 120.176 196.295 121.349 195.494Z" fill="#494949"/>
<path d="M132.433 187.928C133.606 187.127 133.907 185.527 133.107 184.354C132.306 183.182 130.706 182.88 129.533 183.68C128.361 184.481 128.059 186.081 128.86 187.254C129.66 188.427 131.26 188.728 132.433 187.928Z" fill="#494949"/>
<path d="M143.517 180.361C144.69 179.561 144.991 177.961 144.191 176.788C143.39 175.615 141.79 175.313 140.618 176.114C139.445 176.915 139.143 178.514 139.944 179.687C140.744 180.86 142.344 181.162 143.517 180.361Z" fill="#494949"/>
<path d="M154.549 172.83C155.722 172.029 156.024 170.43 155.223 169.257C154.422 168.084 152.823 167.782 151.65 168.583C150.477 169.383 150.175 170.983 150.976 172.156C151.777 173.329 153.376 173.631 154.549 172.83Z" fill="#494949"/>
<path d="M165.633 165.264C166.806 164.463 167.108 162.863 166.307 161.69C165.507 160.518 163.907 160.216 162.734 161.016C161.561 161.817 161.259 163.417 162.06 164.59C162.861 165.762 164.46 166.064 165.633 165.264Z" fill="#494949"/>
<path d="M176.717 157.697C177.89 156.897 178.192 155.297 177.391 154.124C176.591 152.951 174.991 152.649 173.818 153.45C172.645 154.251 172.344 155.85 173.144 157.023C173.945 158.196 175.545 158.498 176.717 157.697Z" fill="#494949"/>
<path d="M187.801 150.131C188.974 149.33 189.276 147.73 188.475 146.557C187.675 145.384 186.075 145.083 184.902 145.883C183.729 146.684 183.428 148.284 184.228 149.457C185.029 150.629 186.629 150.931 187.801 150.131Z" fill="#494949"/>
<path d="M199.508 139.026C200.321 140.218 200.025 141.786 198.834 142.6C197.643 143.413 196.074 143.117 195.261 141.926C194.447 140.734 194.743 139.166 195.935 138.352C197.126 137.539 198.73 137.887 199.508 139.026Z" fill="#494949"/>
<path d="M209.918 135.033C211.091 134.233 211.392 132.633 210.592 131.46C209.791 130.287 208.191 129.985 207.019 130.786C205.846 131.587 205.544 133.186 206.345 134.359C207.145 135.532 208.745 135.834 209.918 135.033Z" fill="#494949"/>
<path d="M221.002 127.466C222.175 126.666 222.477 125.066 221.676 123.893C220.875 122.72 219.276 122.419 218.103 123.219C216.93 124.02 216.628 125.62 217.429 126.793C218.229 127.965 219.829 128.267 221.002 127.466Z" fill="#494949"/>
<path d="M95.7145 229.242C96.8874 228.442 97.1891 226.842 96.3885 225.669C95.5879 224.496 93.9881 224.195 92.8152 224.995C91.6424 225.796 91.3407 227.396 92.1413 228.568C92.9419 229.741 94.5417 230.043 95.7145 229.242Z" fill="#494949"/>
<path d="M106.799 221.676C107.971 220.875 108.273 219.276 107.473 218.103C106.672 216.93 105.072 216.628 103.899 217.429C102.727 218.229 102.425 219.829 103.225 221.002C104.026 222.175 105.626 222.477 106.799 221.676Z" fill="#494949"/>
<path d="M117.831 214.145C119.004 213.344 119.306 211.744 118.505 210.571C117.704 209.399 116.105 209.097 114.932 209.898C113.759 210.698 113.457 212.298 114.258 213.471C115.058 214.644 116.658 214.945 117.831 214.145Z" fill="#494949"/>
<path d="M128.915 206.578C130.088 205.778 130.39 204.178 129.589 203.005C128.788 201.832 127.189 201.53 126.016 202.331C124.843 203.132 124.541 204.732 125.342 205.904C126.142 207.077 127.742 207.379 128.915 206.578Z" fill="#494949"/>
<path d="M139.999 199.012C141.172 198.211 141.474 196.611 140.673 195.439C139.873 194.266 138.273 193.964 137.1 194.765C135.927 195.565 135.625 197.165 136.426 198.338C137.227 199.511 138.826 199.813 139.999 199.012Z" fill="#494949"/>
<path d="M151.083 191.445C152.256 190.645 152.558 189.045 151.757 187.872C150.957 186.699 149.357 186.397 148.184 187.198C147.011 187.999 146.709 189.598 147.51 190.771C148.311 191.944 149.911 192.246 151.083 191.445Z" fill="#494949"/>
<path d="M162.116 183.914C163.288 183.114 163.59 181.514 162.79 180.341C161.989 179.168 160.389 178.866 159.216 179.667C158.044 180.468 157.742 182.067 158.542 183.24C159.343 184.413 160.943 184.715 162.116 183.914Z" fill="#494949"/>
<path d="M173.2 176.348C174.373 175.547 174.674 173.947 173.874 172.775C173.073 171.602 171.473 171.3 170.3 172.101C169.128 172.901 168.826 174.501 169.627 175.674C170.427 176.847 172.027 177.148 173.2 176.348Z" fill="#494949"/>
<path d="M184.284 168.781C185.457 167.981 185.758 166.381 184.958 165.208C184.157 164.035 182.557 163.733 181.385 164.534C180.212 165.335 179.91 166.934 180.711 168.107C181.511 169.28 183.111 169.582 184.284 168.781Z" fill="#494949"/>
<path d="M195.368 161.215C196.541 160.414 196.843 158.814 196.042 157.642C195.241 156.469 193.642 156.167 192.469 156.968C191.296 157.768 190.994 159.368 191.795 160.541C192.595 161.714 194.195 162.015 195.368 161.215Z" fill="#494949"/>
<path d="M207.074 150.111C207.887 151.302 207.592 152.871 206.4 153.684C205.209 154.497 203.64 154.201 202.827 153.01C202.014 151.819 202.31 150.25 203.501 149.437C204.692 148.623 206.261 148.919 207.074 150.111Z" fill="#494949"/>
<path d="M217.484 146.117C218.657 145.316 218.959 143.717 218.158 142.544C217.358 141.371 215.758 141.069 214.585 141.87C213.412 142.671 213.111 144.27 213.911 145.443C214.712 146.616 216.312 146.918 217.484 146.117Z" fill="#494949"/>
<path d="M228.569 138.551C229.741 137.75 230.043 136.15 229.242 134.977C228.442 133.805 226.842 133.503 225.669 134.304C224.496 135.104 224.195 136.704 224.995 137.877C225.796 139.05 227.396 139.351 228.569 138.551Z" fill="#494949"/>
</svg>
