<svg width="20" height="20" viewBox="0 0 20 20" fill="none" xmlns="http://www.w3.org/2000/svg">
<path d="M17.5 9.81052C17.5 14.8484 11.0227 19.1666 11.0227 19.1666C11.0227 19.1666 4.54546 14.8484 4.54546 9.81052C4.54546 8.09264 5.22788 6.44513 6.4426 5.2304C7.65733 4.01568 9.30485 3.33325 11.0227 3.33325C12.7406 3.33325 14.3881 4.01568 15.6029 5.2304C16.8176 6.44513 17.5 8.09264 17.5 9.81052Z" stroke="#B9B9B9" stroke-width="1.5" stroke-linecap="round" stroke-linejoin="round"/>
<path d="M11.0227 11.9695C12.2152 11.9695 13.1818 11.0029 13.1818 9.81046C13.1818 8.61802 12.2152 7.65137 11.0227 7.65137C9.83029 7.65137 8.86363 8.61802 8.86363 9.81046C8.86363 11.0029 9.83029 11.9695 11.0227 11.9695Z" stroke="#B9B9B9" stroke-width="1.5" stroke-linecap="round" stroke-linejoin="round"/>
</svg>
