<svg width="335" height="267" viewBox="0 0 335 267" fill="none" xmlns="http://www.w3.org/2000/svg">
<path d="M200.967 266.5H184.73V220.352L197.767 217.762L197.768 217.762C220.951 213.142 237.122 203.967 245.727 190.439L245.73 190.434C250.129 183.337 252.627 175.232 252.985 166.896L253.007 166.375H252.485H200.967C196.66 166.375 192.53 164.669 189.485 161.633C186.44 158.597 184.73 154.48 184.73 150.188V33.375C184.73 15.2462 199.518 0.5 217.705 0.5H318.13C322.436 0.5 326.567 2.20583 329.612 5.24174C332.657 8.2776 334.367 12.3948 334.367 16.6875V150.188V150.237L334.377 150.286C334.373 150.266 334.377 150.287 334.386 150.4C334.394 150.495 334.403 150.63 334.414 150.806C334.434 151.158 334.458 151.666 334.475 152.319C334.51 153.623 334.519 155.501 334.429 157.849C334.249 162.546 333.671 169.119 332.107 176.741C328.979 191.987 321.909 211.411 306.197 228.413C282.838 253.66 247.459 266.5 200.967 266.5ZM0.5 266.5V220.352L13.5376 217.762L13.5379 217.762C36.7215 213.142 52.892 203.967 61.497 190.439L61.5001 190.434C65.8996 183.337 68.3978 175.232 68.7551 166.896L68.7774 166.375H68.2555H16.7375C12.4306 166.375 8.30033 164.669 5.25532 161.633C2.21037 158.597 0.5 154.48 0.5 150.188V33.375C0.5 15.2462 15.2883 0.5 33.475 0.5H133.9C138.207 0.5 142.337 2.20583 145.382 5.24174C148.427 8.2776 150.137 12.3948 150.137 16.6875V150.188V150.237L150.147 150.285C150.145 150.275 150.145 150.277 150.147 150.295C150.149 150.313 150.152 150.346 150.156 150.4C150.164 150.495 150.174 150.631 150.184 150.806C150.205 151.158 150.229 151.666 150.246 152.319C150.281 153.623 150.291 155.501 150.202 157.849C150.023 162.546 149.447 169.119 147.884 176.741C144.758 191.987 137.688 211.411 121.967 228.413C98.6087 253.66 63.229 266.5 16.7375 266.5H0.5Z" stroke="#292929"/>
</svg>
